<svg xmlns="http://www.w3.org/2000/svg" width="1280" height="392" fill="none"><path fill="#E54B4B" d="M706.56 282.247h64.81c7.256 0 12.863-1.649 16.821-4.948 4.123-3.298 6.184-8.08 6.184-14.347 0-6.267-2.061-11.049-6.184-14.347-3.958-3.298-9.565-4.948-16.821-4.948h-72.974l25.974-26.715v170.683h-57.637V202.1h113.295c14.347 0 26.963 2.556 37.847 7.668s19.377 12.204 25.479 21.274c6.101 9.07 9.152 19.707 9.152 31.91 0 11.874-3.051 22.428-9.152 31.663-6.102 9.07-14.595 16.161-25.479 21.274-10.884 4.947-23.5 7.421-37.847 7.421H706.56v-41.063Zm24.736 18.552h64.068l63.821 86.826h-66.047l-61.842-86.826ZM503.275 303.52c0 7.751 1.402 14.348 4.205 19.79 2.804 5.442 7.009 9.729 12.616 12.863 5.607 2.968 12.616 4.452 21.026 4.452 8.741 0 15.914-1.484 21.521-4.452 5.607-2.969 9.73-7.174 12.369-12.616 2.803-5.607 4.205-12.286 4.205-20.037V202.1h57.636v104.636c0 16.986-3.957 31.91-11.873 44.774-7.916 12.698-19.047 22.592-33.395 29.684-14.347 7.091-31.168 10.636-50.463 10.636-18.965 0-35.621-3.545-49.968-10.636-14.347-7.092-25.561-16.986-33.642-29.684-7.916-12.864-11.873-27.788-11.873-44.774V202.1h57.636v101.42ZM258.211 354.231V308.22h127.147v46.011H258.211ZM360.869 202.1l83.115 185.525H382.39l-67.284-160.541h15.584l-67.531 160.541h-61.347L284.68 202.1h76.189Z"/><path fill="#E54B4B" d="M0 387.625V202.1h57.142v140.257L42.3 330.236 140.999 202.1h60.358L52.195 387.625H0Zm88.805-86.826 42.3-34.136 72.973 120.962h-65.305l-49.968-86.826ZM1127.37 84.353h64.81c7.26 0 12.87-1.65 16.83-4.948 4.12-3.298 6.18-8.08 6.18-14.347 0-6.267-2.06-11.05-6.18-14.347-3.96-3.299-9.57-4.948-16.83-4.948h-72.97l25.97-26.715V189.73h-57.63V4.206h113.29c14.35 0 26.97 2.556 37.85 7.668 10.88 5.112 19.38 12.203 25.48 21.273 6.1 9.07 9.15 19.708 9.15 31.91 0 11.874-3.05 22.429-9.15 31.664-6.1 9.07-14.6 16.161-25.48 21.274-10.88 4.947-23.5 7.421-37.85 7.421h-73.47V84.353Zm24.74 18.552h64.07l63.82 86.826h-66.05l-61.84-86.826ZM886.052 156.336v-46.01H1013.2v46.01H886.052ZM988.709 4.206l83.111 185.525h-61.59L942.946 29.19h15.584L890.999 189.73h-61.347L912.52 4.206h76.189ZM768.506 4.206c16.161 0 30.013 2.72 41.557 8.163 11.709 5.442 20.614 13.11 26.716 23.005 6.102 9.73 9.153 21.273 9.153 34.631 0 13.193-3.051 24.737-9.153 34.632-6.102 9.894-15.007 17.563-26.716 23.005-11.544 5.442-25.396 8.163-41.557 8.163h-79.405V90.289h75.694c7.256 0 12.863-1.814 16.821-5.442 4.123-3.628 6.184-8.575 6.184-14.842 0-6.596-2.061-11.626-6.184-15.09-3.958-3.462-9.565-5.194-16.821-5.194h-70.747l25.974-26.22v166.23h-57.637V4.206h106.121ZM443.113 128.878h58.378c.66 4.288 2.721 8.081 6.184 11.379 3.629 3.134 8.493 5.607 14.595 7.421 6.102 1.649 13.276 2.474 21.521 2.474 11.379 0 20.202-1.319 26.468-3.958 6.432-2.639 9.648-6.679 9.648-12.121 0-3.793-1.814-6.844-5.442-9.153-3.628-2.473-10.802-4.122-21.521-4.947l-32.653-2.721c-26.715-1.979-46.093-7.751-58.131-17.316-11.874-9.73-17.811-22.757-17.811-39.084 0-13.357 3.876-24.489 11.627-33.394 7.751-9.07 18.552-15.914 32.405-20.532C502.233 2.31 518.56 0 537.36 0c18.14 0 34.219 2.556 48.236 7.668 14.183 5.113 25.397 12.369 33.642 21.769 8.411 9.235 13.028 20.036 13.853 32.405h-58.379c-.66-3.628-2.556-6.762-5.689-9.4-2.969-2.804-7.257-4.947-12.864-6.432-5.607-1.484-12.285-2.226-20.036-2.226-10.225 0-18.388 1.237-24.49 3.71-5.936 2.474-8.905 6.185-8.905 11.132 0 3.628 1.732 6.596 5.195 8.905 3.628 2.309 10.224 3.876 19.789 4.7L563.58 75.2c17.811 1.319 32.158 4.122 43.042 8.41 11.049 4.123 19.048 9.812 23.995 17.068 4.947 7.092 7.421 16.079 7.421 26.963 0 13.193-3.958 24.82-11.874 34.879-7.915 9.895-19.047 17.646-33.394 23.253-14.183 5.442-30.839 8.163-49.968 8.163-19.625 0-36.858-2.721-51.7-8.163-14.842-5.442-26.468-13.028-34.879-22.758-8.41-9.895-12.781-21.274-13.11-34.137ZM258.211 156.336v-46.01h127.147v46.01H258.211ZM360.869 4.206l83.115 185.525H382.39L315.106 29.19h15.584L263.159 189.73h-61.347L284.68 4.206h76.189Z"/><path fill="#E54B4B" d="M0 189.731V4.206h57.142v140.257L42.3 132.342 140.999 4.206h60.358L52.195 189.73H0Zm88.805-86.826 42.3-34.137 72.973 120.963h-65.305l-49.968-86.826Z"/></svg>